<svg version="1.1" viewBox="0.0 0.0 50.0 50.0" fill="none" stroke="none" stroke-linecap="square" stroke-miterlimit="10" xmlns:xlink="http://www.w3.org/1999/xlink" xmlns="http://www.w3.org/2000/svg"><clipPath id="p.0"><path d="m0 0l50.0 0l0 50.0l-50.0 0l0 -50.0z" clip-rule="nonzero"/></clipPath><g clip-path="url(#p.0)"><path fill="#000000" fill-opacity="0.0" d="m0 0l50.0 0l0 50.0l-50.0 0z" fill-rule="evenodd"/><path fill="#cfe2f3" d="m6.3228345 11.300525l37.354332 0l0 35.181103l-37.354332 0z" fill-rule="evenodd"/><path stroke="#000000" stroke-width="4.0" stroke-linejoin="round" stroke-linecap="butt" d="m6.3228345 11.300525l37.354332 0l0 35.181103l-37.354332 0z" fill-rule="evenodd"/><path fill="#000000" fill-opacity="0.0" d="m13.9973755 16.486877l0 24.377953" fill-rule="evenodd"/><path stroke="#000000" stroke-width="4.0" stroke-linejoin="round" stroke-linecap="butt" d="m13.9973755 16.486877l0 24.377953" fill-rule="evenodd"/><path fill="#000000" fill-opacity="0.0" d="m25.286089 16.486877l0.031496048 24.283463" fill-rule="evenodd"/><path stroke="#000000" stroke-width="4.0" stroke-linejoin="round" stroke-linecap="butt" d="m25.286089 16.486877l0.031496048 24.283463" fill-rule="evenodd"/><path fill="#000000" fill-opacity="0.0" d="m36.19685 16.694225l0.09449005 23.968506" fill-rule="evenodd"/><path stroke="#000000" stroke-width="4.0" stroke-linejoin="round" stroke-linecap="butt" d="m36.19685 16.694225l0.09449005 23.968506" fill-rule="evenodd"/><path fill="#000000" fill-opacity="0.0" d="m2.2283463 10.78084l45.543304 -0.094488144" fill-rule="evenodd"/><path stroke="#000000" stroke-width="4.0" stroke-linejoin="round" stroke-linecap="butt" d="m2.2283463 10.78084l45.543304 -0.094488144" fill-rule="evenodd"/><path fill="#cfe2f3" d="m15.866141 9.224409l2.8005247 -5.7060366l12.656168 0l3.2152252 5.7060366z" fill-rule="evenodd"/><path stroke="#000000" stroke-width="4.0" stroke-linejoin="round" stroke-linecap="butt" d="m15.866141 9.224409l2.8005247 -5.7060366l12.656168 0l3.2152252 5.7060366z" fill-rule="evenodd"/></g></svg>